<svg xmlns="http://www.w3.org/2000/svg" version="1.1" viewBox="0 0 50 50 ">
<style type="text/css" >
     <![CDATA[
      rect.pixel {
          fill:   #ff0000;
      }
    ]]>
  </style>

   <rect width="50" height="50" fill="rgb(128, 128, 128)"/>
   <rect x="1" y="1" width="48.1" height="48.1" fill="rgb(255, 255, 255)"/>

  <rect class="pixel" x="1" y="1" width=".9" height=".9"/>
  <rect class="pixel" x="2" y="2" width=".9" height=".9"/>
  <rect class="pixel" x="3" y="3" width=".9" height=".9"/>
  <rect class="pixel" x="4" y="4" width=".9" height=".9"/>
  <rect class="pixel" x="5" y="4" width=".9" height=".9"/>
  <rect class="pixel" x="6" y="4" width=".9" height=".9"/>
  <rect class="pixel" x="7" y="4" width=".9" height=".9"/>
  <rect class="pixel" x="8" y="4" width=".9" height=".9"/>
  <rect class="pixel" x="9" y="4" width=".9" height=".9"/>
  <rect class="pixel" x="10" y="4" width=".9" height=".9"/>
  <rect class="pixel" x="11" y="4" width=".9" height=".9"/>
  <rect class="pixel" x="12" y="4" width=".9" height=".9"/>
  <rect class="pixel" x="13" y="4" width=".9" height=".9"/>
  <rect class="pixel" x="14" y="4" width=".9" height=".9"/>
  <rect class="pixel" x="15" y="4" width=".9" height=".9"/>
  <rect class="pixel" x="16" y="4" width=".9" height=".9"/>
  <rect class="pixel" x="17" y="4" width=".9" height=".9"/>
  <rect class="pixel" x="18" y="4" width=".9" height=".9"/>
  <rect class="pixel" x="5" y="5" width=".9" height=".9"/>
  <rect class="pixel" x="4" y="5" width=".9" height=".9"/>
  <rect class="pixel" x="6" y="5" width=".9" height=".9"/>
  <rect class="pixel" x="7" y="5" width=".9" height=".9"/>
  <rect class="pixel" x="8" y="5" width=".9" height=".9"/>
  <rect class="pixel" x="9" y="5" width=".9" height=".9"/>
  <rect class="pixel" x="10" y="5" width=".9" height=".9"/>
  <rect class="pixel" x="11" y="5" width=".9" height=".9"/>
  <rect class="pixel" x="12" y="5" width=".9" height=".9"/>
  <rect class="pixel" x="13" y="5" width=".9" height=".9"/>
  <rect class="pixel" x="14" y="5" width=".9" height=".9"/>
  <rect class="pixel" x="15" y="5" width=".9" height=".9"/>
  <rect class="pixel" x="16" y="5" width=".9" height=".9"/>
  <rect class="pixel" x="17" y="5" width=".9" height=".9"/>
  <rect class="pixel" x="18" y="5" width=".9" height=".9"/>
  <rect class="pixel" x="6" y="6" width=".9" height=".9"/>
  <rect class="pixel" x="4" y="6" width=".9" height=".9"/>
  <rect class="pixel" x="5" y="6" width=".9" height=".9"/>
  <rect class="pixel" x="7" y="6" width=".9" height=".9"/>
  <rect class="pixel" x="8" y="6" width=".9" height=".9"/>
  <rect class="pixel" x="9" y="6" width=".9" height=".9"/>
  <rect class="pixel" x="10" y="6" width=".9" height=".9"/>
  <rect class="pixel" x="11" y="6" width=".9" height=".9"/>
  <rect class="pixel" x="12" y="6" width=".9" height=".9"/>
  <rect class="pixel" x="13" y="6" width=".9" height=".9"/>
  <rect class="pixel" x="14" y="6" width=".9" height=".9"/>
  <rect class="pixel" x="15" y="6" width=".9" height=".9"/>
  <rect class="pixel" x="16" y="6" width=".9" height=".9"/>
  <rect class="pixel" x="17" y="6" width=".9" height=".9"/>
  <rect class="pixel" x="18" y="6" width=".9" height=".9"/>
  <rect class="pixel" x="7" y="7" width=".9" height=".9"/>
  <rect class="pixel" x="4" y="7" width=".9" height=".9"/>
  <rect class="pixel" x="5" y="7" width=".9" height=".9"/>
  <rect class="pixel" x="6" y="7" width=".9" height=".9"/>
  <rect class="pixel" x="8" y="7" width=".9" height=".9"/>
  <rect class="pixel" x="9" y="7" width=".9" height=".9"/>
  <rect class="pixel" x="10" y="7" width=".9" height=".9"/>
  <rect class="pixel" x="11" y="7" width=".9" height=".9"/>
  <rect class="pixel" x="12" y="7" width=".9" height=".9"/>
  <rect class="pixel" x="25" y="7" width=".9" height=".9"/>
  <rect class="pixel" x="26" y="7" width=".9" height=".9"/>
  <rect class="pixel" x="27" y="7" width=".9" height=".9"/>
  <rect class="pixel" x="28" y="7" width=".9" height=".9"/>
  <rect class="pixel" x="29" y="7" width=".9" height=".9"/>
  <rect class="pixel" x="30" y="7" width=".9" height=".9"/>
  <rect class="pixel" x="8" y="8" width=".9" height=".9"/>
  <rect class="pixel" x="4" y="8" width=".9" height=".9"/>
  <rect class="pixel" x="5" y="8" width=".9" height=".9"/>
  <rect class="pixel" x="6" y="8" width=".9" height=".9"/>
  <rect class="pixel" x="7" y="8" width=".9" height=".9"/>
  <rect class="pixel" x="9" y="8" width=".9" height=".9"/>
  <rect class="pixel" x="10" y="8" width=".9" height=".9"/>
  <rect class="pixel" x="11" y="8" width=".9" height=".9"/>
  <rect class="pixel" x="12" y="8" width=".9" height=".9"/>
  <rect class="pixel" x="25" y="8" width=".9" height=".9"/>
  <rect class="pixel" x="26" y="8" width=".9" height=".9"/>
  <rect class="pixel" x="27" y="8" width=".9" height=".9"/>
  <rect class="pixel" x="28" y="8" width=".9" height=".9"/>
  <rect class="pixel" x="29" y="8" width=".9" height=".9"/>
  <rect class="pixel" x="30" y="8" width=".9" height=".9"/>
  <rect class="pixel" x="9" y="9" width=".9" height=".9"/>
  <rect class="pixel" x="4" y="9" width=".9" height=".9"/>
  <rect class="pixel" x="5" y="9" width=".9" height=".9"/>
  <rect class="pixel" x="6" y="9" width=".9" height=".9"/>
  <rect class="pixel" x="7" y="9" width=".9" height=".9"/>
  <rect class="pixel" x="8" y="9" width=".9" height=".9"/>
  <rect class="pixel" x="10" y="9" width=".9" height=".9"/>
  <rect class="pixel" x="11" y="9" width=".9" height=".9"/>
  <rect class="pixel" x="12" y="9" width=".9" height=".9"/>
  <rect class="pixel" x="25" y="9" width=".9" height=".9"/>
  <rect class="pixel" x="26" y="9" width=".9" height=".9"/>
  <rect class="pixel" x="27" y="9" width=".9" height=".9"/>
  <rect class="pixel" x="28" y="9" width=".9" height=".9"/>
  <rect class="pixel" x="29" y="9" width=".9" height=".9"/>
  <rect class="pixel" x="30" y="9" width=".9" height=".9"/>
  <rect class="pixel" x="10" y="10" width=".9" height=".9"/>
  <rect class="pixel" x="4" y="10" width=".9" height=".9"/>
  <rect class="pixel" x="5" y="10" width=".9" height=".9"/>
  <rect class="pixel" x="6" y="10" width=".9" height=".9"/>
  <rect class="pixel" x="7" y="10" width=".9" height=".9"/>
  <rect class="pixel" x="8" y="10" width=".9" height=".9"/>
  <rect class="pixel" x="9" y="10" width=".9" height=".9"/>
  <rect class="pixel" x="11" y="10" width=".9" height=".9"/>
  <rect class="pixel" x="12" y="10" width=".9" height=".9"/>
  <rect class="pixel" x="13" y="10" width=".9" height=".9"/>
  <rect class="pixel" x="14" y="10" width=".9" height=".9"/>
  <rect class="pixel" x="15" y="10" width=".9" height=".9"/>
  <rect class="pixel" x="16" y="10" width=".9" height=".9"/>
  <rect class="pixel" x="17" y="10" width=".9" height=".9"/>
  <rect class="pixel" x="18" y="10" width=".9" height=".9"/>
  <rect class="pixel" x="25" y="10" width=".9" height=".9"/>
  <rect class="pixel" x="26" y="10" width=".9" height=".9"/>
  <rect class="pixel" x="27" y="10" width=".9" height=".9"/>
  <rect class="pixel" x="28" y="10" width=".9" height=".9"/>
  <rect class="pixel" x="29" y="10" width=".9" height=".9"/>
  <rect class="pixel" x="30" y="10" width=".9" height=".9"/>
  <rect class="pixel" x="31" y="10" width=".9" height=".9"/>
  <rect class="pixel" x="32" y="10" width=".9" height=".9"/>
  <rect class="pixel" x="33" y="10" width=".9" height=".9"/>
  <rect class="pixel" x="11" y="11" width=".9" height=".9"/>
  <rect class="pixel" x="4" y="11" width=".9" height=".9"/>
  <rect class="pixel" x="5" y="11" width=".9" height=".9"/>
  <rect class="pixel" x="6" y="11" width=".9" height=".9"/>
  <rect class="pixel" x="7" y="11" width=".9" height=".9"/>
  <rect class="pixel" x="8" y="11" width=".9" height=".9"/>
  <rect class="pixel" x="9" y="11" width=".9" height=".9"/>
  <rect class="pixel" x="10" y="11" width=".9" height=".9"/>
  <rect class="pixel" x="12" y="11" width=".9" height=".9"/>
  <rect class="pixel" x="13" y="11" width=".9" height=".9"/>
  <rect class="pixel" x="14" y="11" width=".9" height=".9"/>
  <rect class="pixel" x="15" y="11" width=".9" height=".9"/>
  <rect class="pixel" x="16" y="11" width=".9" height=".9"/>
  <rect class="pixel" x="17" y="11" width=".9" height=".9"/>
  <rect class="pixel" x="18" y="11" width=".9" height=".9"/>
  <rect class="pixel" x="25" y="11" width=".9" height=".9"/>
  <rect class="pixel" x="26" y="11" width=".9" height=".9"/>
  <rect class="pixel" x="27" y="11" width=".9" height=".9"/>
  <rect class="pixel" x="28" y="11" width=".9" height=".9"/>
  <rect class="pixel" x="29" y="11" width=".9" height=".9"/>
  <rect class="pixel" x="30" y="11" width=".9" height=".9"/>
  <rect class="pixel" x="31" y="11" width=".9" height=".9"/>
  <rect class="pixel" x="32" y="11" width=".9" height=".9"/>
  <rect class="pixel" x="33" y="11" width=".9" height=".9"/>
  <rect class="pixel" x="12" y="12" width=".9" height=".9"/>
  <rect class="pixel" x="4" y="12" width=".9" height=".9"/>
  <rect class="pixel" x="5" y="12" width=".9" height=".9"/>
  <rect class="pixel" x="6" y="12" width=".9" height=".9"/>
  <rect class="pixel" x="7" y="12" width=".9" height=".9"/>
  <rect class="pixel" x="8" y="12" width=".9" height=".9"/>
  <rect class="pixel" x="9" y="12" width=".9" height=".9"/>
  <rect class="pixel" x="10" y="12" width=".9" height=".9"/>
  <rect class="pixel" x="11" y="12" width=".9" height=".9"/>
  <rect class="pixel" x="13" y="12" width=".9" height=".9"/>
  <rect class="pixel" x="14" y="12" width=".9" height=".9"/>
  <rect class="pixel" x="15" y="12" width=".9" height=".9"/>
  <rect class="pixel" x="16" y="12" width=".9" height=".9"/>
  <rect class="pixel" x="17" y="12" width=".9" height=".9"/>
  <rect class="pixel" x="18" y="12" width=".9" height=".9"/>
  <rect class="pixel" x="25" y="12" width=".9" height=".9"/>
  <rect class="pixel" x="26" y="12" width=".9" height=".9"/>
  <rect class="pixel" x="27" y="12" width=".9" height=".9"/>
  <rect class="pixel" x="28" y="12" width=".9" height=".9"/>
  <rect class="pixel" x="29" y="12" width=".9" height=".9"/>
  <rect class="pixel" x="30" y="12" width=".9" height=".9"/>
  <rect class="pixel" x="31" y="12" width=".9" height=".9"/>
  <rect class="pixel" x="32" y="12" width=".9" height=".9"/>
  <rect class="pixel" x="33" y="12" width=".9" height=".9"/>
  <rect class="pixel" x="13" y="13" width=".9" height=".9"/>
  <rect class="pixel" x="4" y="13" width=".9" height=".9"/>
  <rect class="pixel" x="5" y="13" width=".9" height=".9"/>
  <rect class="pixel" x="6" y="13" width=".9" height=".9"/>
  <rect class="pixel" x="10" y="13" width=".9" height=".9"/>
  <rect class="pixel" x="11" y="13" width=".9" height=".9"/>
  <rect class="pixel" x="12" y="13" width=".9" height=".9"/>
  <rect class="pixel" x="14" y="13" width=".9" height=".9"/>
  <rect class="pixel" x="15" y="13" width=".9" height=".9"/>
  <rect class="pixel" x="16" y="13" width=".9" height=".9"/>
  <rect class="pixel" x="17" y="13" width=".9" height=".9"/>
  <rect class="pixel" x="18" y="13" width=".9" height=".9"/>
  <rect class="pixel" x="22" y="13" width=".9" height=".9"/>
  <rect class="pixel" x="23" y="13" width=".9" height=".9"/>
  <rect class="pixel" x="24" y="13" width=".9" height=".9"/>
  <rect class="pixel" x="14" y="14" width=".9" height=".9"/>
  <rect class="pixel" x="4" y="14" width=".9" height=".9"/>
  <rect class="pixel" x="5" y="14" width=".9" height=".9"/>
  <rect class="pixel" x="6" y="14" width=".9" height=".9"/>
  <rect class="pixel" x="10" y="14" width=".9" height=".9"/>
  <rect class="pixel" x="11" y="14" width=".9" height=".9"/>
  <rect class="pixel" x="12" y="14" width=".9" height=".9"/>
  <rect class="pixel" x="13" y="14" width=".9" height=".9"/>
  <rect class="pixel" x="15" y="14" width=".9" height=".9"/>
  <rect class="pixel" x="16" y="14" width=".9" height=".9"/>
  <rect class="pixel" x="17" y="14" width=".9" height=".9"/>
  <rect class="pixel" x="18" y="14" width=".9" height=".9"/>
  <rect class="pixel" x="22" y="14" width=".9" height=".9"/>
  <rect class="pixel" x="23" y="14" width=".9" height=".9"/>
  <rect class="pixel" x="24" y="14" width=".9" height=".9"/>
  <rect class="pixel" x="15" y="15" width=".9" height=".9"/>
  <rect class="pixel" x="4" y="15" width=".9" height=".9"/>
  <rect class="pixel" x="5" y="15" width=".9" height=".9"/>
  <rect class="pixel" x="6" y="15" width=".9" height=".9"/>
  <rect class="pixel" x="10" y="15" width=".9" height=".9"/>
  <rect class="pixel" x="11" y="15" width=".9" height=".9"/>
  <rect class="pixel" x="12" y="15" width=".9" height=".9"/>
  <rect class="pixel" x="13" y="15" width=".9" height=".9"/>
  <rect class="pixel" x="14" y="15" width=".9" height=".9"/>
  <rect class="pixel" x="16" y="15" width=".9" height=".9"/>
  <rect class="pixel" x="17" y="15" width=".9" height=".9"/>
  <rect class="pixel" x="18" y="15" width=".9" height=".9"/>
  <rect class="pixel" x="22" y="15" width=".9" height=".9"/>
  <rect class="pixel" x="23" y="15" width=".9" height=".9"/>
  <rect class="pixel" x="24" y="15" width=".9" height=".9"/>
  <rect class="pixel" x="16" y="16" width=".9" height=".9"/>
  <rect class="pixel" x="4" y="16" width=".9" height=".9"/>
  <rect class="pixel" x="5" y="16" width=".9" height=".9"/>
  <rect class="pixel" x="6" y="16" width=".9" height=".9"/>
  <rect class="pixel" x="10" y="16" width=".9" height=".9"/>
  <rect class="pixel" x="11" y="16" width=".9" height=".9"/>
  <rect class="pixel" x="12" y="16" width=".9" height=".9"/>
  <rect class="pixel" x="13" y="16" width=".9" height=".9"/>
  <rect class="pixel" x="14" y="16" width=".9" height=".9"/>
  <rect class="pixel" x="15" y="16" width=".9" height=".9"/>
  <rect class="pixel" x="17" y="16" width=".9" height=".9"/>
  <rect class="pixel" x="18" y="16" width=".9" height=".9"/>
  <rect class="pixel" x="22" y="16" width=".9" height=".9"/>
  <rect class="pixel" x="23" y="16" width=".9" height=".9"/>
  <rect class="pixel" x="24" y="16" width=".9" height=".9"/>
  <rect class="pixel" x="28" y="16" width=".9" height=".9"/>
  <rect class="pixel" x="29" y="16" width=".9" height=".9"/>
  <rect class="pixel" x="30" y="16" width=".9" height=".9"/>
  <rect class="pixel" x="31" y="16" width=".9" height=".9"/>
  <rect class="pixel" x="32" y="16" width=".9" height=".9"/>
  <rect class="pixel" x="33" y="16" width=".9" height=".9"/>
  <rect class="pixel" x="34" y="16" width=".9" height=".9"/>
  <rect class="pixel" x="35" y="16" width=".9" height=".9"/>
  <rect class="pixel" x="36" y="16" width=".9" height=".9"/>
  <rect class="pixel" x="17" y="17" width=".9" height=".9"/>
  <rect class="pixel" x="4" y="17" width=".9" height=".9"/>
  <rect class="pixel" x="5" y="17" width=".9" height=".9"/>
  <rect class="pixel" x="6" y="17" width=".9" height=".9"/>
  <rect class="pixel" x="10" y="17" width=".9" height=".9"/>
  <rect class="pixel" x="11" y="17" width=".9" height=".9"/>
  <rect class="pixel" x="12" y="17" width=".9" height=".9"/>
  <rect class="pixel" x="13" y="17" width=".9" height=".9"/>
  <rect class="pixel" x="14" y="17" width=".9" height=".9"/>
  <rect class="pixel" x="15" y="17" width=".9" height=".9"/>
  <rect class="pixel" x="16" y="17" width=".9" height=".9"/>
  <rect class="pixel" x="18" y="17" width=".9" height=".9"/>
  <rect class="pixel" x="22" y="17" width=".9" height=".9"/>
  <rect class="pixel" x="23" y="17" width=".9" height=".9"/>
  <rect class="pixel" x="24" y="17" width=".9" height=".9"/>
  <rect class="pixel" x="28" y="17" width=".9" height=".9"/>
  <rect class="pixel" x="29" y="17" width=".9" height=".9"/>
  <rect class="pixel" x="30" y="17" width=".9" height=".9"/>
  <rect class="pixel" x="31" y="17" width=".9" height=".9"/>
  <rect class="pixel" x="32" y="17" width=".9" height=".9"/>
  <rect class="pixel" x="33" y="17" width=".9" height=".9"/>
  <rect class="pixel" x="34" y="17" width=".9" height=".9"/>
  <rect class="pixel" x="35" y="17" width=".9" height=".9"/>
  <rect class="pixel" x="36" y="17" width=".9" height=".9"/>
  <rect class="pixel" x="18" y="18" width=".9" height=".9"/>
  <rect class="pixel" x="4" y="18" width=".9" height=".9"/>
  <rect class="pixel" x="5" y="18" width=".9" height=".9"/>
  <rect class="pixel" x="6" y="18" width=".9" height=".9"/>
  <rect class="pixel" x="10" y="18" width=".9" height=".9"/>
  <rect class="pixel" x="11" y="18" width=".9" height=".9"/>
  <rect class="pixel" x="12" y="18" width=".9" height=".9"/>
  <rect class="pixel" x="13" y="18" width=".9" height=".9"/>
  <rect class="pixel" x="14" y="18" width=".9" height=".9"/>
  <rect class="pixel" x="15" y="18" width=".9" height=".9"/>
  <rect class="pixel" x="16" y="18" width=".9" height=".9"/>
  <rect class="pixel" x="17" y="18" width=".9" height=".9"/>
  <rect class="pixel" x="22" y="18" width=".9" height=".9"/>
  <rect class="pixel" x="23" y="18" width=".9" height=".9"/>
  <rect class="pixel" x="24" y="18" width=".9" height=".9"/>
  <rect class="pixel" x="28" y="18" width=".9" height=".9"/>
  <rect class="pixel" x="29" y="18" width=".9" height=".9"/>
  <rect class="pixel" x="30" y="18" width=".9" height=".9"/>
  <rect class="pixel" x="31" y="18" width=".9" height=".9"/>
  <rect class="pixel" x="32" y="18" width=".9" height=".9"/>
  <rect class="pixel" x="33" y="18" width=".9" height=".9"/>
  <rect class="pixel" x="34" y="18" width=".9" height=".9"/>
  <rect class="pixel" x="35" y="18" width=".9" height=".9"/>
  <rect class="pixel" x="36" y="18" width=".9" height=".9"/>
  <rect class="pixel" x="19" y="19" width=".9" height=".9"/>
  <rect class="pixel" x="20" y="20" width=".9" height=".9"/>
  <rect class="pixel" x="21" y="21" width=".9" height=".9"/>
  <rect class="pixel" x="22" y="22" width=".9" height=".9"/>
  <rect class="pixel" x="13" y="22" width=".9" height=".9"/>
  <rect class="pixel" x="14" y="22" width=".9" height=".9"/>
  <rect class="pixel" x="15" y="22" width=".9" height=".9"/>
  <rect class="pixel" x="16" y="22" width=".9" height=".9"/>
  <rect class="pixel" x="17" y="22" width=".9" height=".9"/>
  <rect class="pixel" x="18" y="22" width=".9" height=".9"/>
  <rect class="pixel" x="23" y="22" width=".9" height=".9"/>
  <rect class="pixel" x="24" y="22" width=".9" height=".9"/>
  <rect class="pixel" x="31" y="22" width=".9" height=".9"/>
  <rect class="pixel" x="32" y="22" width=".9" height=".9"/>
  <rect class="pixel" x="33" y="22" width=".9" height=".9"/>
  <rect class="pixel" x="34" y="22" width=".9" height=".9"/>
  <rect class="pixel" x="35" y="22" width=".9" height=".9"/>
  <rect class="pixel" x="36" y="22" width=".9" height=".9"/>
  <rect class="pixel" x="23" y="23" width=".9" height=".9"/>
  <rect class="pixel" x="13" y="23" width=".9" height=".9"/>
  <rect class="pixel" x="14" y="23" width=".9" height=".9"/>
  <rect class="pixel" x="15" y="23" width=".9" height=".9"/>
  <rect class="pixel" x="16" y="23" width=".9" height=".9"/>
  <rect class="pixel" x="17" y="23" width=".9" height=".9"/>
  <rect class="pixel" x="18" y="23" width=".9" height=".9"/>
  <rect class="pixel" x="22" y="23" width=".9" height=".9"/>
  <rect class="pixel" x="24" y="23" width=".9" height=".9"/>
  <rect class="pixel" x="31" y="23" width=".9" height=".9"/>
  <rect class="pixel" x="32" y="23" width=".9" height=".9"/>
  <rect class="pixel" x="33" y="23" width=".9" height=".9"/>
  <rect class="pixel" x="34" y="23" width=".9" height=".9"/>
  <rect class="pixel" x="35" y="23" width=".9" height=".9"/>
  <rect class="pixel" x="36" y="23" width=".9" height=".9"/>
  <rect class="pixel" x="24" y="24" width=".9" height=".9"/>
  <rect class="pixel" x="13" y="24" width=".9" height=".9"/>
  <rect class="pixel" x="14" y="24" width=".9" height=".9"/>
  <rect class="pixel" x="15" y="24" width=".9" height=".9"/>
  <rect class="pixel" x="16" y="24" width=".9" height=".9"/>
  <rect class="pixel" x="17" y="24" width=".9" height=".9"/>
  <rect class="pixel" x="18" y="24" width=".9" height=".9"/>
  <rect class="pixel" x="22" y="24" width=".9" height=".9"/>
  <rect class="pixel" x="23" y="24" width=".9" height=".9"/>
  <rect class="pixel" x="31" y="24" width=".9" height=".9"/>
  <rect class="pixel" x="32" y="24" width=".9" height=".9"/>
  <rect class="pixel" x="33" y="24" width=".9" height=".9"/>
  <rect class="pixel" x="34" y="24" width=".9" height=".9"/>
  <rect class="pixel" x="35" y="24" width=".9" height=".9"/>
  <rect class="pixel" x="36" y="24" width=".9" height=".9"/>
  <rect class="pixel" x="25" y="25" width=".9" height=".9"/>
  <rect class="pixel" x="7" y="25" width=".9" height=".9"/>
  <rect class="pixel" x="8" y="25" width=".9" height=".9"/>
  <rect class="pixel" x="9" y="25" width=".9" height=".9"/>
  <rect class="pixel" x="10" y="25" width=".9" height=".9"/>
  <rect class="pixel" x="11" y="25" width=".9" height=".9"/>
  <rect class="pixel" x="12" y="25" width=".9" height=".9"/>
  <rect class="pixel" x="26" y="25" width=".9" height=".9"/>
  <rect class="pixel" x="27" y="25" width=".9" height=".9"/>
  <rect class="pixel" x="28" y="25" width=".9" height=".9"/>
  <rect class="pixel" x="29" y="25" width=".9" height=".9"/>
  <rect class="pixel" x="30" y="25" width=".9" height=".9"/>
  <rect class="pixel" x="40" y="25" width=".9" height=".9"/>
  <rect class="pixel" x="41" y="25" width=".9" height=".9"/>
  <rect class="pixel" x="42" y="25" width=".9" height=".9"/>
  <rect class="pixel" x="26" y="26" width=".9" height=".9"/>
  <rect class="pixel" x="7" y="26" width=".9" height=".9"/>
  <rect class="pixel" x="8" y="26" width=".9" height=".9"/>
  <rect class="pixel" x="9" y="26" width=".9" height=".9"/>
  <rect class="pixel" x="10" y="26" width=".9" height=".9"/>
  <rect class="pixel" x="11" y="26" width=".9" height=".9"/>
  <rect class="pixel" x="12" y="26" width=".9" height=".9"/>
  <rect class="pixel" x="25" y="26" width=".9" height=".9"/>
  <rect class="pixel" x="27" y="26" width=".9" height=".9"/>
  <rect class="pixel" x="28" y="26" width=".9" height=".9"/>
  <rect class="pixel" x="29" y="26" width=".9" height=".9"/>
  <rect class="pixel" x="30" y="26" width=".9" height=".9"/>
  <rect class="pixel" x="40" y="26" width=".9" height=".9"/>
  <rect class="pixel" x="41" y="26" width=".9" height=".9"/>
  <rect class="pixel" x="42" y="26" width=".9" height=".9"/>
  <rect class="pixel" x="27" y="27" width=".9" height=".9"/>
  <rect class="pixel" x="7" y="27" width=".9" height=".9"/>
  <rect class="pixel" x="8" y="27" width=".9" height=".9"/>
  <rect class="pixel" x="9" y="27" width=".9" height=".9"/>
  <rect class="pixel" x="10" y="27" width=".9" height=".9"/>
  <rect class="pixel" x="11" y="27" width=".9" height=".9"/>
  <rect class="pixel" x="12" y="27" width=".9" height=".9"/>
  <rect class="pixel" x="25" y="27" width=".9" height=".9"/>
  <rect class="pixel" x="26" y="27" width=".9" height=".9"/>
  <rect class="pixel" x="28" y="27" width=".9" height=".9"/>
  <rect class="pixel" x="29" y="27" width=".9" height=".9"/>
  <rect class="pixel" x="30" y="27" width=".9" height=".9"/>
  <rect class="pixel" x="40" y="27" width=".9" height=".9"/>
  <rect class="pixel" x="41" y="27" width=".9" height=".9"/>
  <rect class="pixel" x="42" y="27" width=".9" height=".9"/>
  <rect class="pixel" x="28" y="28" width=".9" height=".9"/>
  <rect class="pixel" x="7" y="28" width=".9" height=".9"/>
  <rect class="pixel" x="8" y="28" width=".9" height=".9"/>
  <rect class="pixel" x="9" y="28" width=".9" height=".9"/>
  <rect class="pixel" x="10" y="28" width=".9" height=".9"/>
  <rect class="pixel" x="11" y="28" width=".9" height=".9"/>
  <rect class="pixel" x="12" y="28" width=".9" height=".9"/>
  <rect class="pixel" x="16" y="28" width=".9" height=".9"/>
  <rect class="pixel" x="17" y="28" width=".9" height=".9"/>
  <rect class="pixel" x="18" y="28" width=".9" height=".9"/>
  <rect class="pixel" x="25" y="28" width=".9" height=".9"/>
  <rect class="pixel" x="26" y="28" width=".9" height=".9"/>
  <rect class="pixel" x="27" y="28" width=".9" height=".9"/>
  <rect class="pixel" x="29" y="28" width=".9" height=".9"/>
  <rect class="pixel" x="30" y="28" width=".9" height=".9"/>
  <rect class="pixel" x="31" y="28" width=".9" height=".9"/>
  <rect class="pixel" x="32" y="28" width=".9" height=".9"/>
  <rect class="pixel" x="33" y="28" width=".9" height=".9"/>
  <rect class="pixel" x="40" y="28" width=".9" height=".9"/>
  <rect class="pixel" x="41" y="28" width=".9" height=".9"/>
  <rect class="pixel" x="42" y="28" width=".9" height=".9"/>
  <rect class="pixel" x="43" y="28" width=".9" height=".9"/>
  <rect class="pixel" x="44" y="28" width=".9" height=".9"/>
  <rect class="pixel" x="45" y="28" width=".9" height=".9"/>
  <rect class="pixel" x="29" y="29" width=".9" height=".9"/>
  <rect class="pixel" x="7" y="29" width=".9" height=".9"/>
  <rect class="pixel" x="8" y="29" width=".9" height=".9"/>
  <rect class="pixel" x="9" y="29" width=".9" height=".9"/>
  <rect class="pixel" x="10" y="29" width=".9" height=".9"/>
  <rect class="pixel" x="11" y="29" width=".9" height=".9"/>
  <rect class="pixel" x="12" y="29" width=".9" height=".9"/>
  <rect class="pixel" x="16" y="29" width=".9" height=".9"/>
  <rect class="pixel" x="17" y="29" width=".9" height=".9"/>
  <rect class="pixel" x="18" y="29" width=".9" height=".9"/>
  <rect class="pixel" x="25" y="29" width=".9" height=".9"/>
  <rect class="pixel" x="26" y="29" width=".9" height=".9"/>
  <rect class="pixel" x="27" y="29" width=".9" height=".9"/>
  <rect class="pixel" x="28" y="29" width=".9" height=".9"/>
  <rect class="pixel" x="30" y="29" width=".9" height=".9"/>
  <rect class="pixel" x="31" y="29" width=".9" height=".9"/>
  <rect class="pixel" x="32" y="29" width=".9" height=".9"/>
  <rect class="pixel" x="33" y="29" width=".9" height=".9"/>
  <rect class="pixel" x="40" y="29" width=".9" height=".9"/>
  <rect class="pixel" x="41" y="29" width=".9" height=".9"/>
  <rect class="pixel" x="42" y="29" width=".9" height=".9"/>
  <rect class="pixel" x="43" y="29" width=".9" height=".9"/>
  <rect class="pixel" x="44" y="29" width=".9" height=".9"/>
  <rect class="pixel" x="45" y="29" width=".9" height=".9"/>
  <rect class="pixel" x="30" y="30" width=".9" height=".9"/>
  <rect class="pixel" x="7" y="30" width=".9" height=".9"/>
  <rect class="pixel" x="8" y="30" width=".9" height=".9"/>
  <rect class="pixel" x="9" y="30" width=".9" height=".9"/>
  <rect class="pixel" x="10" y="30" width=".9" height=".9"/>
  <rect class="pixel" x="11" y="30" width=".9" height=".9"/>
  <rect class="pixel" x="12" y="30" width=".9" height=".9"/>
  <rect class="pixel" x="16" y="30" width=".9" height=".9"/>
  <rect class="pixel" x="17" y="30" width=".9" height=".9"/>
  <rect class="pixel" x="18" y="30" width=".9" height=".9"/>
  <rect class="pixel" x="25" y="30" width=".9" height=".9"/>
  <rect class="pixel" x="26" y="30" width=".9" height=".9"/>
  <rect class="pixel" x="27" y="30" width=".9" height=".9"/>
  <rect class="pixel" x="28" y="30" width=".9" height=".9"/>
  <rect class="pixel" x="29" y="30" width=".9" height=".9"/>
  <rect class="pixel" x="31" y="30" width=".9" height=".9"/>
  <rect class="pixel" x="32" y="30" width=".9" height=".9"/>
  <rect class="pixel" x="33" y="30" width=".9" height=".9"/>
  <rect class="pixel" x="40" y="30" width=".9" height=".9"/>
  <rect class="pixel" x="41" y="30" width=".9" height=".9"/>
  <rect class="pixel" x="42" y="30" width=".9" height=".9"/>
  <rect class="pixel" x="43" y="30" width=".9" height=".9"/>
  <rect class="pixel" x="44" y="30" width=".9" height=".9"/>
  <rect class="pixel" x="45" y="30" width=".9" height=".9"/>
  <rect class="pixel" x="31" y="31" width=".9" height=".9"/>
  <rect class="pixel" x="10" y="31" width=".9" height=".9"/>
  <rect class="pixel" x="11" y="31" width=".9" height=".9"/>
  <rect class="pixel" x="12" y="31" width=".9" height=".9"/>
  <rect class="pixel" x="16" y="31" width=".9" height=".9"/>
  <rect class="pixel" x="17" y="31" width=".9" height=".9"/>
  <rect class="pixel" x="18" y="31" width=".9" height=".9"/>
  <rect class="pixel" x="22" y="31" width=".9" height=".9"/>
  <rect class="pixel" x="23" y="31" width=".9" height=".9"/>
  <rect class="pixel" x="24" y="31" width=".9" height=".9"/>
  <rect class="pixel" x="28" y="31" width=".9" height=".9"/>
  <rect class="pixel" x="29" y="31" width=".9" height=".9"/>
  <rect class="pixel" x="30" y="31" width=".9" height=".9"/>
  <rect class="pixel" x="32" y="31" width=".9" height=".9"/>
  <rect class="pixel" x="33" y="31" width=".9" height=".9"/>
  <rect class="pixel" x="34" y="31" width=".9" height=".9"/>
  <rect class="pixel" x="35" y="31" width=".9" height=".9"/>
  <rect class="pixel" x="36" y="31" width=".9" height=".9"/>
  <rect class="pixel" x="40" y="31" width=".9" height=".9"/>
  <rect class="pixel" x="41" y="31" width=".9" height=".9"/>
  <rect class="pixel" x="42" y="31" width=".9" height=".9"/>
  <rect class="pixel" x="43" y="31" width=".9" height=".9"/>
  <rect class="pixel" x="44" y="31" width=".9" height=".9"/>
  <rect class="pixel" x="45" y="31" width=".9" height=".9"/>
  <rect class="pixel" x="32" y="32" width=".9" height=".9"/>
  <rect class="pixel" x="10" y="32" width=".9" height=".9"/>
  <rect class="pixel" x="11" y="32" width=".9" height=".9"/>
  <rect class="pixel" x="12" y="32" width=".9" height=".9"/>
  <rect class="pixel" x="16" y="32" width=".9" height=".9"/>
  <rect class="pixel" x="17" y="32" width=".9" height=".9"/>
  <rect class="pixel" x="18" y="32" width=".9" height=".9"/>
  <rect class="pixel" x="22" y="32" width=".9" height=".9"/>
  <rect class="pixel" x="23" y="32" width=".9" height=".9"/>
  <rect class="pixel" x="24" y="32" width=".9" height=".9"/>
  <rect class="pixel" x="28" y="32" width=".9" height=".9"/>
  <rect class="pixel" x="29" y="32" width=".9" height=".9"/>
  <rect class="pixel" x="30" y="32" width=".9" height=".9"/>
  <rect class="pixel" x="31" y="32" width=".9" height=".9"/>
  <rect class="pixel" x="33" y="32" width=".9" height=".9"/>
  <rect class="pixel" x="34" y="32" width=".9" height=".9"/>
  <rect class="pixel" x="35" y="32" width=".9" height=".9"/>
  <rect class="pixel" x="36" y="32" width=".9" height=".9"/>
  <rect class="pixel" x="40" y="32" width=".9" height=".9"/>
  <rect class="pixel" x="41" y="32" width=".9" height=".9"/>
  <rect class="pixel" x="42" y="32" width=".9" height=".9"/>
  <rect class="pixel" x="43" y="32" width=".9" height=".9"/>
  <rect class="pixel" x="44" y="32" width=".9" height=".9"/>
  <rect class="pixel" x="45" y="32" width=".9" height=".9"/>
  <rect class="pixel" x="33" y="33" width=".9" height=".9"/>
  <rect class="pixel" x="10" y="33" width=".9" height=".9"/>
  <rect class="pixel" x="11" y="33" width=".9" height=".9"/>
  <rect class="pixel" x="12" y="33" width=".9" height=".9"/>
  <rect class="pixel" x="16" y="33" width=".9" height=".9"/>
  <rect class="pixel" x="17" y="33" width=".9" height=".9"/>
  <rect class="pixel" x="18" y="33" width=".9" height=".9"/>
  <rect class="pixel" x="22" y="33" width=".9" height=".9"/>
  <rect class="pixel" x="23" y="33" width=".9" height=".9"/>
  <rect class="pixel" x="24" y="33" width=".9" height=".9"/>
  <rect class="pixel" x="28" y="33" width=".9" height=".9"/>
  <rect class="pixel" x="29" y="33" width=".9" height=".9"/>
  <rect class="pixel" x="30" y="33" width=".9" height=".9"/>
  <rect class="pixel" x="31" y="33" width=".9" height=".9"/>
  <rect class="pixel" x="32" y="33" width=".9" height=".9"/>
  <rect class="pixel" x="34" y="33" width=".9" height=".9"/>
  <rect class="pixel" x="35" y="33" width=".9" height=".9"/>
  <rect class="pixel" x="36" y="33" width=".9" height=".9"/>
  <rect class="pixel" x="40" y="33" width=".9" height=".9"/>
  <rect class="pixel" x="41" y="33" width=".9" height=".9"/>
  <rect class="pixel" x="42" y="33" width=".9" height=".9"/>
  <rect class="pixel" x="43" y="33" width=".9" height=".9"/>
  <rect class="pixel" x="44" y="33" width=".9" height=".9"/>
  <rect class="pixel" x="45" y="33" width=".9" height=".9"/>
  <rect class="pixel" x="34" y="34" width=".9" height=".9"/>
  <rect class="pixel" x="16" y="34" width=".9" height=".9"/>
  <rect class="pixel" x="17" y="34" width=".9" height=".9"/>
  <rect class="pixel" x="18" y="34" width=".9" height=".9"/>
  <rect class="pixel" x="22" y="34" width=".9" height=".9"/>
  <rect class="pixel" x="23" y="34" width=".9" height=".9"/>
  <rect class="pixel" x="24" y="34" width=".9" height=".9"/>
  <rect class="pixel" x="31" y="34" width=".9" height=".9"/>
  <rect class="pixel" x="32" y="34" width=".9" height=".9"/>
  <rect class="pixel" x="33" y="34" width=".9" height=".9"/>
  <rect class="pixel" x="35" y="34" width=".9" height=".9"/>
  <rect class="pixel" x="36" y="34" width=".9" height=".9"/>
  <rect class="pixel" x="43" y="34" width=".9" height=".9"/>
  <rect class="pixel" x="44" y="34" width=".9" height=".9"/>
  <rect class="pixel" x="45" y="34" width=".9" height=".9"/>
  <rect class="pixel" x="35" y="35" width=".9" height=".9"/>
  <rect class="pixel" x="16" y="35" width=".9" height=".9"/>
  <rect class="pixel" x="17" y="35" width=".9" height=".9"/>
  <rect class="pixel" x="18" y="35" width=".9" height=".9"/>
  <rect class="pixel" x="22" y="35" width=".9" height=".9"/>
  <rect class="pixel" x="23" y="35" width=".9" height=".9"/>
  <rect class="pixel" x="24" y="35" width=".9" height=".9"/>
  <rect class="pixel" x="31" y="35" width=".9" height=".9"/>
  <rect class="pixel" x="32" y="35" width=".9" height=".9"/>
  <rect class="pixel" x="33" y="35" width=".9" height=".9"/>
  <rect class="pixel" x="34" y="35" width=".9" height=".9"/>
  <rect class="pixel" x="36" y="35" width=".9" height=".9"/>
  <rect class="pixel" x="43" y="35" width=".9" height=".9"/>
  <rect class="pixel" x="44" y="35" width=".9" height=".9"/>
  <rect class="pixel" x="45" y="35" width=".9" height=".9"/>
  <rect class="pixel" x="36" y="36" width=".9" height=".9"/>
  <rect class="pixel" x="16" y="36" width=".9" height=".9"/>
  <rect class="pixel" x="17" y="36" width=".9" height=".9"/>
  <rect class="pixel" x="18" y="36" width=".9" height=".9"/>
  <rect class="pixel" x="22" y="36" width=".9" height=".9"/>
  <rect class="pixel" x="23" y="36" width=".9" height=".9"/>
  <rect class="pixel" x="24" y="36" width=".9" height=".9"/>
  <rect class="pixel" x="31" y="36" width=".9" height=".9"/>
  <rect class="pixel" x="32" y="36" width=".9" height=".9"/>
  <rect class="pixel" x="33" y="36" width=".9" height=".9"/>
  <rect class="pixel" x="34" y="36" width=".9" height=".9"/>
  <rect class="pixel" x="35" y="36" width=".9" height=".9"/>
  <rect class="pixel" x="43" y="36" width=".9" height=".9"/>
  <rect class="pixel" x="44" y="36" width=".9" height=".9"/>
  <rect class="pixel" x="45" y="36" width=".9" height=".9"/>
  <rect class="pixel" x="37" y="37" width=".9" height=".9"/>
  <rect class="pixel" x="38" y="38" width=".9" height=".9"/>
  <rect class="pixel" x="39" y="39" width=".9" height=".9"/>
  <rect class="pixel" x="40" y="40" width=".9" height=".9"/>
  <rect class="pixel" x="25" y="40" width=".9" height=".9"/>
  <rect class="pixel" x="26" y="40" width=".9" height=".9"/>
  <rect class="pixel" x="27" y="40" width=".9" height=".9"/>
  <rect class="pixel" x="28" y="40" width=".9" height=".9"/>
  <rect class="pixel" x="29" y="40" width=".9" height=".9"/>
  <rect class="pixel" x="30" y="40" width=".9" height=".9"/>
  <rect class="pixel" x="31" y="40" width=".9" height=".9"/>
  <rect class="pixel" x="32" y="40" width=".9" height=".9"/>
  <rect class="pixel" x="33" y="40" width=".9" height=".9"/>
  <rect class="pixel" x="41" y="40" width=".9" height=".9"/>
  <rect class="pixel" x="42" y="40" width=".9" height=".9"/>
  <rect class="pixel" x="43" y="40" width=".9" height=".9"/>
  <rect class="pixel" x="44" y="40" width=".9" height=".9"/>
  <rect class="pixel" x="45" y="40" width=".9" height=".9"/>
  <rect class="pixel" x="41" y="41" width=".9" height=".9"/>
  <rect class="pixel" x="25" y="41" width=".9" height=".9"/>
  <rect class="pixel" x="26" y="41" width=".9" height=".9"/>
  <rect class="pixel" x="27" y="41" width=".9" height=".9"/>
  <rect class="pixel" x="28" y="41" width=".9" height=".9"/>
  <rect class="pixel" x="29" y="41" width=".9" height=".9"/>
  <rect class="pixel" x="30" y="41" width=".9" height=".9"/>
  <rect class="pixel" x="31" y="41" width=".9" height=".9"/>
  <rect class="pixel" x="32" y="41" width=".9" height=".9"/>
  <rect class="pixel" x="33" y="41" width=".9" height=".9"/>
  <rect class="pixel" x="40" y="41" width=".9" height=".9"/>
  <rect class="pixel" x="42" y="41" width=".9" height=".9"/>
  <rect class="pixel" x="43" y="41" width=".9" height=".9"/>
  <rect class="pixel" x="44" y="41" width=".9" height=".9"/>
  <rect class="pixel" x="45" y="41" width=".9" height=".9"/>
  <rect class="pixel" x="42" y="42" width=".9" height=".9"/>
  <rect class="pixel" x="25" y="42" width=".9" height=".9"/>
  <rect class="pixel" x="26" y="42" width=".9" height=".9"/>
  <rect class="pixel" x="27" y="42" width=".9" height=".9"/>
  <rect class="pixel" x="28" y="42" width=".9" height=".9"/>
  <rect class="pixel" x="29" y="42" width=".9" height=".9"/>
  <rect class="pixel" x="30" y="42" width=".9" height=".9"/>
  <rect class="pixel" x="31" y="42" width=".9" height=".9"/>
  <rect class="pixel" x="32" y="42" width=".9" height=".9"/>
  <rect class="pixel" x="33" y="42" width=".9" height=".9"/>
  <rect class="pixel" x="40" y="42" width=".9" height=".9"/>
  <rect class="pixel" x="41" y="42" width=".9" height=".9"/>
  <rect class="pixel" x="43" y="42" width=".9" height=".9"/>
  <rect class="pixel" x="44" y="42" width=".9" height=".9"/>
  <rect class="pixel" x="45" y="42" width=".9" height=".9"/>
  <rect class="pixel" x="43" y="43" width=".9" height=".9"/>
  <rect class="pixel" x="28" y="43" width=".9" height=".9"/>
  <rect class="pixel" x="29" y="43" width=".9" height=".9"/>
  <rect class="pixel" x="30" y="43" width=".9" height=".9"/>
  <rect class="pixel" x="31" y="43" width=".9" height=".9"/>
  <rect class="pixel" x="32" y="43" width=".9" height=".9"/>
  <rect class="pixel" x="33" y="43" width=".9" height=".9"/>
  <rect class="pixel" x="34" y="43" width=".9" height=".9"/>
  <rect class="pixel" x="35" y="43" width=".9" height=".9"/>
  <rect class="pixel" x="36" y="43" width=".9" height=".9"/>
  <rect class="pixel" x="40" y="43" width=".9" height=".9"/>
  <rect class="pixel" x="41" y="43" width=".9" height=".9"/>
  <rect class="pixel" x="42" y="43" width=".9" height=".9"/>
  <rect class="pixel" x="44" y="43" width=".9" height=".9"/>
  <rect class="pixel" x="45" y="43" width=".9" height=".9"/>
  <rect class="pixel" x="44" y="44" width=".9" height=".9"/>
  <rect class="pixel" x="28" y="44" width=".9" height=".9"/>
  <rect class="pixel" x="29" y="44" width=".9" height=".9"/>
  <rect class="pixel" x="30" y="44" width=".9" height=".9"/>
  <rect class="pixel" x="31" y="44" width=".9" height=".9"/>
  <rect class="pixel" x="32" y="44" width=".9" height=".9"/>
  <rect class="pixel" x="33" y="44" width=".9" height=".9"/>
  <rect class="pixel" x="34" y="44" width=".9" height=".9"/>
  <rect class="pixel" x="35" y="44" width=".9" height=".9"/>
  <rect class="pixel" x="36" y="44" width=".9" height=".9"/>
  <rect class="pixel" x="40" y="44" width=".9" height=".9"/>
  <rect class="pixel" x="41" y="44" width=".9" height=".9"/>
  <rect class="pixel" x="42" y="44" width=".9" height=".9"/>
  <rect class="pixel" x="43" y="44" width=".9" height=".9"/>
  <rect class="pixel" x="45" y="44" width=".9" height=".9"/>
  <rect class="pixel" x="45" y="45" width=".9" height=".9"/>
  <rect class="pixel" x="28" y="45" width=".9" height=".9"/>
  <rect class="pixel" x="29" y="45" width=".9" height=".9"/>
  <rect class="pixel" x="30" y="45" width=".9" height=".9"/>
  <rect class="pixel" x="31" y="45" width=".9" height=".9"/>
  <rect class="pixel" x="32" y="45" width=".9" height=".9"/>
  <rect class="pixel" x="33" y="45" width=".9" height=".9"/>
  <rect class="pixel" x="34" y="45" width=".9" height=".9"/>
  <rect class="pixel" x="35" y="45" width=".9" height=".9"/>
  <rect class="pixel" x="36" y="45" width=".9" height=".9"/>
  <rect class="pixel" x="40" y="45" width=".9" height=".9"/>
  <rect class="pixel" x="41" y="45" width=".9" height=".9"/>
  <rect class="pixel" x="42" y="45" width=".9" height=".9"/>
  <rect class="pixel" x="43" y="45" width=".9" height=".9"/>
  <rect class="pixel" x="44" y="45" width=".9" height=".9"/>
  <rect class="pixel" x="46" y="46" width=".9" height=".9"/>
  <rect class="pixel" x="47" y="47" width=".9" height=".9"/>
  <rect class="pixel" x="48" y="48" width=".9" height=".9"/>
</svg>
